# xmcd
#
# Track frame offsets:
#	150
#	22415
#	40329
#	61183
#	82705
#	102473
#	123881
#	143669
#	163165
#	179355
#	208681
#	230021
#	245485
#	269756
#
# Disc length: 3872 seconds
#
# Revision: 1
# Processed by: cddbd v1.5.2PL0 Copyright (c) Steve Scherf et al.
# Submitted via: audiograbber 1.80
#
DISCID=c90f1e0e
DTITLE=8 Ball and MJG - Ten Toes Down
DYEAR=1900
DGENRE=
TTITLE0=It"s Going Down
TTITLE1=Bring It Back
TTITLE2=I Don't Give a F__k  feat Bun B
TTITLE3=Ten Toes Down  ft. Lil Boosie
TTITLE4=F__k U Mean  ft. Soulja Boy
TTITLE5=We Come From
TTITLE6=She's So Fine
TTITLE7=Grinding
TTITLE8=Spotlight
TTITLE9=Right Now
TTITLE10=What They Do  ft. T.I.
TTITLE11=Billy "Truth Be Told"
TTITLE12=Life Goes On  ft. Slim Thug
TTITLE13=Still Will Remain
EXTD=
EXTT0=
EXTT1=
EXTT2=
EXTT3=
EXTT4=
EXTT5=
EXTT6=
EXTT7=
EXTT8=
EXTT9=
EXTT10=
EXTT11=
EXTT12=
EXTT13=
PLAYORDER=
